<svg width="195" height="29" viewBox="0 0 195 29" fill="none" xmlns="http://www.w3.org/2000/svg">
<path d="M187.975 9.14398C190.087 9.14398 191.731 9.79198 192.907 11.088C194.107 12.36 194.707 14.352 194.707 17.064H181.999L181.963 16.38H191.251C191.299 15.204 191.203 14.124 190.963 13.14C190.723 12.132 190.339 11.328 189.811 10.728C189.307 10.128 188.647 9.82798 187.831 9.82798C186.727 9.82798 185.743 10.38 184.879 11.484C184.039 12.588 183.535 14.34 183.367 16.74L183.475 16.884C183.427 17.244 183.391 17.64 183.367 18.072C183.343 18.504 183.331 18.936 183.331 19.368C183.331 21 183.595 22.404 184.123 23.58C184.651 24.756 185.335 25.656 186.175 26.28C187.039 26.88 187.927 27.18 188.839 27.18C189.559 27.18 190.243 27.072 190.891 26.856C191.539 26.616 192.139 26.232 192.691 25.704C193.243 25.176 193.723 24.468 194.131 23.58L194.851 23.868C194.587 24.66 194.155 25.428 193.555 26.172C192.955 26.916 192.199 27.528 191.287 28.008C190.375 28.464 189.319 28.692 188.119 28.692C186.391 28.692 184.903 28.296 183.655 27.504C182.431 26.712 181.483 25.62 180.811 24.228C180.163 22.812 179.839 21.192 179.839 19.368C179.839 17.256 180.175 15.444 180.847 13.932C181.519 12.396 182.467 11.22 183.691 10.404C184.915 9.56398 186.343 9.14398 187.975 9.14398Z" fill="#1B191E"/>
<path d="M169.842 9.14398C170.754 9.14398 171.51 9.26398 172.11 9.50398C172.734 9.74398 173.25 10.08 173.658 10.512C174.114 10.992 174.438 11.592 174.63 12.312C174.822 13.032 174.918 14.004 174.918 15.228V24.84C174.918 25.848 175.122 26.532 175.53 26.892C175.962 27.252 176.67 27.432 177.654 27.432V28.188C177.246 28.164 176.622 28.14 175.782 28.116C174.942 28.068 174.126 28.044 173.334 28.044C172.542 28.044 171.762 28.068 170.994 28.116C170.25 28.14 169.686 28.164 169.302 28.188V27.432C170.166 27.432 170.778 27.252 171.138 26.892C171.498 26.532 171.678 25.848 171.678 24.84V14.436C171.678 13.692 171.618 13.008 171.498 12.384C171.378 11.76 171.102 11.256 170.67 10.872C170.262 10.488 169.626 10.296 168.762 10.296C167.754 10.296 166.866 10.584 166.098 11.16C165.354 11.736 164.766 12.528 164.334 13.536C163.926 14.52 163.722 15.624 163.722 16.848V24.84C163.722 25.848 163.902 26.532 164.262 26.892C164.622 27.252 165.234 27.432 166.098 27.432V28.188C165.714 28.164 165.138 28.14 164.37 28.116C163.626 28.068 162.858 28.044 162.066 28.044C161.274 28.044 160.458 28.068 159.618 28.116C158.778 28.14 158.154 28.164 157.746 28.188V27.432C158.73 27.432 159.426 27.252 159.834 26.892C160.266 26.532 160.482 25.848 160.482 24.84V13.572C160.482 12.492 160.29 11.7 159.906 11.196C159.522 10.668 158.802 10.404 157.746 10.404V9.64798C158.514 9.71998 159.258 9.75598 159.978 9.75598C160.674 9.75598 161.334 9.71998 161.958 9.64798C162.606 9.55198 163.194 9.41998 163.722 9.25198V13.5C164.346 11.868 165.21 10.74 166.314 10.116C167.442 9.46798 168.618 9.14398 169.842 9.14398Z" fill="#1B191E"/>
<path d="M151.303 0.64798C151.927 0.64798 152.467 0.87598 152.923 1.33198C153.379 1.78798 153.607 2.32798 153.607 2.95198C153.607 3.57598 153.379 4.11598 152.923 4.57198C152.467 5.02798 151.927 5.25598 151.303 5.25598C150.679 5.25598 150.139 5.02798 149.683 4.57198C149.227 4.11598 148.999 3.57598 148.999 2.95198C148.999 2.32798 149.227 1.78798 149.683 1.33198C150.139 0.87598 150.679 0.64798 151.303 0.64798ZM153.175 9.25198V24.84C153.175 25.848 153.379 26.532 153.787 26.892C154.219 27.252 154.927 27.432 155.911 27.432V28.188C155.503 28.164 154.879 28.14 154.039 28.116C153.223 28.068 152.395 28.044 151.555 28.044C150.739 28.044 149.911 28.068 149.071 28.116C148.231 28.14 147.607 28.164 147.199 28.188V27.432C148.183 27.432 148.879 27.252 149.287 26.892C149.719 26.532 149.935 25.848 149.935 24.84V13.572C149.935 12.492 149.743 11.7 149.359 11.196C148.975 10.668 148.255 10.404 147.199 10.404V9.64798C147.967 9.71998 148.711 9.75598 149.431 9.75598C150.127 9.75598 150.787 9.71998 151.411 9.64798C152.059 9.55198 152.647 9.41998 153.175 9.25198Z" fill="#1B191E"/>
<path d="M140.269 3.672V9.684H145.597V10.404H140.269V24.336C140.269 25.464 140.473 26.256 140.881 26.712C141.289 27.168 141.853 27.396 142.573 27.396C143.293 27.396 143.917 27.108 144.445 26.532C144.973 25.932 145.429 24.936 145.813 23.544L146.533 23.724C146.293 25.116 145.813 26.292 145.093 27.252C144.397 28.212 143.317 28.692 141.853 28.692C141.037 28.692 140.365 28.584 139.837 28.368C139.309 28.176 138.841 27.888 138.433 27.504C137.905 26.952 137.533 26.292 137.317 25.524C137.125 24.756 137.029 23.736 137.029 22.464V10.404H133.573V9.684H137.029V4.176C137.629 4.152 138.205 4.104 138.757 4.032C139.309 3.96 139.813 3.84 140.269 3.672Z" fill="#1B191E"/>
<path d="M129.899 9.25198V24.3C129.899 25.38 130.091 26.184 130.475 26.712C130.883 27.216 131.603 27.468 132.635 27.468V28.224C131.891 28.152 131.147 28.116 130.403 28.116C129.707 28.116 129.035 28.152 128.387 28.224C127.763 28.296 127.187 28.428 126.659 28.62V24.372C126.059 25.932 125.207 27.048 124.103 27.72C123.023 28.368 121.907 28.692 120.755 28.692C119.915 28.692 119.183 28.572 118.559 28.332C117.935 28.092 117.419 27.756 117.011 27.324C116.555 26.844 116.243 26.22 116.075 25.452C115.907 24.684 115.823 23.736 115.823 22.608V13.572C115.823 12.492 115.631 11.7 115.247 11.196C114.863 10.668 114.143 10.404 113.087 10.404V9.64798C113.855 9.71998 114.599 9.75598 115.319 9.75598C116.015 9.75598 116.675 9.71998 117.299 9.64798C117.947 9.55198 118.535 9.41998 119.063 9.25198V23.4C119.063 24.144 119.111 24.828 119.207 25.452C119.303 26.076 119.543 26.58 119.927 26.964C120.311 27.348 120.935 27.54 121.799 27.54C122.735 27.54 123.563 27.252 124.283 26.676C125.027 26.1 125.603 25.32 126.011 24.336C126.443 23.352 126.659 22.248 126.659 21.024V13.572C126.659 12.492 126.467 11.7 126.083 11.196C125.699 10.668 124.979 10.404 123.923 10.404V9.64798C124.691 9.71998 125.435 9.75598 126.155 9.75598C126.851 9.75598 127.511 9.71998 128.135 9.64798C128.783 9.55198 129.371 9.41998 129.899 9.25198Z" fill="#1B191E"/>
<path d="M102.652 9.14398C104.188 9.14398 105.568 9.47998 106.792 10.152C108.016 10.824 108.988 11.88 109.708 13.32C110.452 14.76 110.824 16.632 110.824 18.936C110.824 21.24 110.452 23.112 109.708 24.552C108.988 25.968 108.016 27.012 106.792 27.684C105.568 28.356 104.188 28.692 102.652 28.692C101.14 28.692 99.76 28.356 98.512 27.684C97.288 27.012 96.304 25.968 95.56 24.552C94.84 23.112 94.48 21.24 94.48 18.936C94.48 16.632 94.84 14.76 95.56 13.32C96.304 11.88 97.288 10.824 98.512 10.152C99.76 9.47998 101.14 9.14398 102.652 9.14398ZM102.652 9.86399C101.284 9.86399 100.156 10.572 99.268 11.988C98.404 13.404 97.972 15.72 97.972 18.936C97.972 22.152 98.404 24.468 99.268 25.884C100.156 27.276 101.284 27.972 102.652 27.972C104.02 27.972 105.136 27.276 106 25.884C106.888 24.468 107.332 22.152 107.332 18.936C107.332 15.72 106.888 13.404 106 11.988C105.136 10.572 104.02 9.86399 102.652 9.86399Z" fill="#1B191E"/>
<path d="M70.9563 2.69998C71.4603 2.72398 72.1203 2.74798 72.9363 2.77198C73.7523 2.79598 74.5563 2.80798 75.3483 2.80798C76.4763 2.80798 77.5563 2.79598 78.5883 2.77198C79.6203 2.74798 80.3523 2.73598 80.7843 2.73598C82.7283 2.73598 84.3363 3.01198 85.6083 3.56398C86.9043 4.11598 87.8643 4.87198 88.4883 5.83198C89.1363 6.76798 89.4603 7.82398 89.4603 8.99998C89.4603 9.71998 89.3163 10.488 89.0283 11.304C88.7403 12.12 88.2363 12.888 87.5163 13.608C86.8203 14.328 85.8603 14.928 84.6363 15.408C83.4123 15.864 81.8643 16.092 79.9923 16.092H76.5363V15.372H79.6323C81.3363 15.372 82.6323 15.108 83.5203 14.58C84.4323 14.028 85.0443 13.308 85.3563 12.42C85.6923 11.508 85.8603 10.5 85.8603 9.39598C85.8603 7.49998 85.4043 6.03598 84.4923 5.00398C83.6043 3.94798 82.0683 3.41998 79.8843 3.41998C78.7803 3.41998 78.0603 3.62398 77.7243 4.03198C77.3883 4.43998 77.2203 5.26798 77.2203 6.51598V24.372C77.2203 25.236 77.2923 25.884 77.4363 26.316C77.5803 26.748 77.8563 27.036 78.2643 27.18C78.6963 27.324 79.3203 27.42 80.1363 27.468V28.188C79.5843 28.14 78.8883 28.116 78.0483 28.116C77.2323 28.092 76.4043 28.08 75.5643 28.08C74.6283 28.08 73.7523 28.092 72.9363 28.116C72.1203 28.116 71.4603 28.14 70.9563 28.188V27.468C71.7723 27.42 72.3843 27.324 72.7923 27.18C73.2243 27.036 73.5123 26.748 73.6563 26.316C73.8003 25.884 73.8723 25.236 73.8723 24.372V6.51598C73.8723 5.62798 73.8003 4.97998 73.6563 4.57198C73.5123 4.13998 73.2243 3.85198 72.7923 3.70798C72.3843 3.53998 71.7723 3.44398 70.9563 3.41998V2.69998ZM76.6803 15.48C77.9763 15.528 78.9963 15.588 79.7403 15.66C80.4843 15.708 81.0843 15.756 81.5403 15.804C82.0203 15.852 82.4763 15.912 82.9083 15.984C84.5163 16.248 85.6683 16.74 86.3643 17.46C87.0843 18.156 87.6123 19.248 87.9483 20.736L88.8483 24.408C89.0883 25.464 89.3283 26.232 89.5683 26.712C89.8323 27.168 90.2283 27.384 90.7563 27.36C91.1643 27.336 91.5003 27.204 91.7643 26.964C92.0523 26.724 92.3523 26.4 92.6643 25.992L93.2043 26.388C92.7003 27.132 92.1723 27.708 91.6203 28.116C91.0923 28.5 90.3363 28.692 89.3523 28.692C88.4643 28.692 87.6843 28.428 87.0123 27.9C86.3403 27.372 85.8363 26.34 85.5003 24.804L84.7083 21.204C84.4923 20.172 84.2403 19.284 83.9523 18.54C83.6883 17.772 83.3043 17.172 82.8003 16.74C82.3203 16.308 81.6003 16.092 80.6403 16.092H76.7523L76.6803 15.48Z" fill="#1B191E"/>
<path d="M52.0605 9.14398C54.1725 9.14398 55.8165 9.79198 56.9925 11.088C58.1925 12.36 58.7925 14.352 58.7925 17.064H46.0845L46.0485 16.38H55.3365C55.3845 15.204 55.2885 14.124 55.0485 13.14C54.8085 12.132 54.4245 11.328 53.8965 10.728C53.3925 10.128 52.7325 9.82798 51.9165 9.82798C50.8125 9.82798 49.8285 10.38 48.9645 11.484C48.1245 12.588 47.6205 14.34 47.4525 16.74L47.5605 16.884C47.5125 17.244 47.4765 17.64 47.4525 18.072C47.4285 18.504 47.4165 18.936 47.4165 19.368C47.4165 21 47.6805 22.404 48.2085 23.58C48.7365 24.756 49.4205 25.656 50.2605 26.28C51.1245 26.88 52.0125 27.18 52.9245 27.18C53.6445 27.18 54.3285 27.072 54.9765 26.856C55.6245 26.616 56.2245 26.232 56.7765 25.704C57.3285 25.176 57.8085 24.468 58.2165 23.58L58.9365 23.868C58.6725 24.66 58.2405 25.428 57.6405 26.172C57.0405 26.916 56.2845 27.528 55.3725 28.008C54.4605 28.464 53.4045 28.692 52.2045 28.692C50.4765 28.692 48.9885 28.296 47.7405 27.504C46.5165 26.712 45.5685 25.62 44.8965 24.228C44.2485 22.812 43.9245 21.192 43.9245 19.368C43.9245 17.256 44.2605 15.444 44.9325 13.932C45.6045 12.396 46.5525 11.22 47.7765 10.404C49.0005 9.56398 50.4285 9.14398 52.0605 9.14398Z" fill="#1B191E"/>
<path d="M27.8004 0V13.464C28.4244 11.832 29.2884 10.704 30.3924 10.08C31.5204 9.456 32.6964 9.144 33.9204 9.144C34.8324 9.144 35.5884 9.264 36.1884 9.504C36.8124 9.744 37.3284 10.08 37.7364 10.512C38.1924 10.992 38.5164 11.592 38.7084 12.312C38.9004 13.032 38.9964 14.004 38.9964 15.228V24.84C38.9964 25.848 39.2004 26.532 39.6084 26.892C40.0404 27.252 40.7484 27.432 41.7324 27.432V28.188C41.3244 28.164 40.7004 28.14 39.8604 28.116C39.0204 28.068 38.2044 28.044 37.4124 28.044C36.6204 28.044 35.8404 28.068 35.0724 28.116C34.3284 28.14 33.7644 28.164 33.3804 28.188V27.432C34.2444 27.432 34.8564 27.252 35.2164 26.892C35.5764 26.532 35.7564 25.848 35.7564 24.84V14.436C35.7564 13.692 35.6964 13.008 35.5764 12.384C35.4564 11.76 35.1804 11.256 34.7484 10.872C34.3404 10.488 33.7044 10.296 32.8404 10.296C31.8564 10.296 30.9804 10.572 30.2124 11.124C29.4684 11.676 28.8804 12.444 28.4484 13.428C28.0164 14.412 27.8004 15.54 27.8004 16.812V24.84C27.8004 25.848 27.9804 26.532 28.3404 26.892C28.7004 27.252 29.3124 27.432 30.1764 27.432V28.188C29.7924 28.164 29.2164 28.14 28.4484 28.116C27.7044 28.068 26.9364 28.044 26.1444 28.044C25.3524 28.044 24.5364 28.068 23.6964 28.116C22.8564 28.14 22.2324 28.164 21.8244 28.188V27.432C22.8084 27.432 23.5044 27.252 23.9124 26.892C24.3444 26.532 24.5604 25.848 24.5604 24.84V4.32C24.5604 3.24 24.3684 2.448 23.9844 1.944C23.6004 1.416 22.8804 1.152 21.8244 1.152V0.396001C22.5924 0.468 23.3364 0.504 24.0564 0.504C24.7524 0.504 25.4124 0.468 26.0364 0.396001C26.6844 0.300001 27.2724 0.168001 27.8004 0Z" fill="#1B191E"/>
<path d="M20.268 2.69998C20.172 3.61198 20.1 4.49998 20.052 5.36398C20.028 6.20398 20.016 6.85198 20.016 7.30798C20.016 7.88398 20.028 8.42398 20.052 8.92798C20.076 9.43198 20.1 9.87598 20.124 10.26H19.296C19.128 8.57998 18.9 7.25998 18.612 6.29998C18.324 5.31598 17.82 4.60798 17.1 4.17598C16.38 3.74398 15.264 3.52798 13.752 3.52798H11.808V24.012C11.808 24.972 11.892 25.692 12.06 26.172C12.252 26.652 12.612 26.976 13.14 27.144C13.668 27.312 14.436 27.42 15.444 27.468V28.188C14.82 28.14 14.028 28.116 13.068 28.116C12.108 28.092 11.136 28.08 10.152 28.08C9.072 28.08 8.052 28.092 7.092 28.116C6.156 28.116 5.4 28.14 4.824 28.188V27.468C5.832 27.42 6.6 27.312 7.128 27.144C7.656 26.976 8.004 26.652 8.172 26.172C8.364 25.692 8.46 24.972 8.46 24.012V3.52798H6.516C5.028 3.52798 3.912 3.74398 3.168 4.17598C2.448 4.60798 1.944 5.31598 1.656 6.29998C1.368 7.25998 1.14 8.57998 0.972 10.26H0.144C0.192 9.87598 0.216 9.43198 0.216 8.92798C0.24 8.42398 0.252 7.88398 0.252 7.30798C0.252 6.85198 0.228 6.20398 0.18 5.36398C0.156 4.49998 0.096 3.61198 0 2.69998C1.008 2.72398 2.1 2.74798 3.276 2.77198C4.476 2.79598 5.676 2.80798 6.876 2.80798C8.076 2.80798 9.168 2.80798 10.152 2.80798C11.136 2.80798 12.216 2.80798 13.392 2.80798C14.592 2.80798 15.792 2.79598 16.992 2.77198C18.192 2.74798 19.284 2.72398 20.268 2.69998Z" fill="#1B191E"/>
</svg>
